<svg width="237" height="74" viewBox="0 0 237 74" fill="none" xmlns="http://www.w3.org/2000/svg">
<g id="Primary Logo">
<path id="Fill 2" fill-rule="evenodd" clip-rule="evenodd" d="M28.8107 16.8991C30.6298 15.1087 31.7606 12.5993 31.7606 9.82409C31.7606 4.37835 27.4079 0 22.0399 0H4.39551V34.4855L28.426 17.2903V25.8431L7.91009 40.5221H23.4056C23.4056 40.5221 28.6005 36.9205 30.3509 35.6686C33.0906 33.6922 34.9152 30.4308 34.9152 26.7425C34.9152 22.4068 32.4228 18.6593 28.8107 16.8991V16.8991ZM198.629 23.6478V29.1569L207.112 29.1445C205.508 32.4637 202.146 34.7486 198.257 34.7486C192.814 34.7486 188.403 30.2725 188.403 24.7537C188.403 19.2322 192.814 14.7561 198.257 14.7561C202.482 14.7561 206.064 17.4528 207.487 21.2417L212.506 16.727C209.699 11.6641 204.385 8.24022 198.257 8.24022C189.255 8.24022 181.957 15.632 181.957 24.7537C181.957 33.8726 189.255 41.2645 198.257 41.2645C207.26 41.2645 214.556 33.8726 214.556 24.7537C214.556 24.3722 214.538 24.0293 214.519 23.6436L198.629 23.6478ZM170.859 8.77323V26.9959L148.269 8.77323L148.254 40.5221H154.87V22.2925L177.489 40.5428L177.473 8.77323H170.859ZM125.377 8.77323V26.9959L102.789 8.77323L102.772 40.5221H109.388V22.2925L132.007 40.5428L131.992 8.77323H125.377ZM136.762 40.5221H143.379V8.77323H136.779L136.762 40.5221ZM57.1913 28.5922C57.1913 31.8191 54.2551 34.4318 51.0758 34.4318C47.8951 34.4318 44.9589 31.8191 44.9589 28.5922L44.9617 8.77323H38.3625L38.3461 28.5522C38.3461 35.4827 44.2431 41.0978 51.0758 41.0978C57.9085 41.0978 63.8027 35.4744 63.8027 28.544V8.77323H57.2036L57.1913 28.5922ZM91.3324 8.77323V26.9959L68.7446 8.77323L68.7295 40.5221H75.3451V22.2925L97.9659 40.5428L97.9494 8.77323H91.3324ZM223.44 17.8109C223.44 15.5494 225.123 14.4393 226.958 14.4393C228.856 14.4393 230.678 15.2505 232.14 16.8716L235.853 12.1351C233.632 9.78551 230.661 8.31871 226.609 8.31871C221.442 8.31871 217.253 12.5676 217.253 17.8109C217.253 26.7673 230.626 26.8954 230.626 31.8838C230.626 34.2431 228.857 35.5804 227.075 35.5804C224.013 35.5804 221.809 33.8947 220.418 32.4843L216.783 37.1423C219.005 39.4919 222.679 41.3333 226.968 41.3333C232.136 41.3333 236.606 37.0844 236.606 31.8439C236.606 22.1355 223.44 22.7856 223.44 17.8109V17.8109Z" fill="white"/>
<path id="Fill 4" fill-rule="evenodd" clip-rule="evenodd" d="M13.7109 8.33325L0.392578 17.7875V26.3333L25.749 8.33325H13.7109Z" fill="#DA291C"/>
<path id="Fill 6" fill-rule="evenodd" clip-rule="evenodd" d="M177.086 42.9585L157.518 27.3334L157.521 42.9585H131.563L111.994 27.3334L111.998 42.9585H97.5188L77.9505 27.3334L77.9533 42.9585L4.39648 42.9599V73.9904L236.608 74V42.9599L177.086 42.9585Z" fill="#DA291C"/>
<path id="Fill 8" fill-rule="evenodd" clip-rule="evenodd" d="M68.8862 47.3148V49.4544C67.8211 48.0598 66.2687 47.1799 64.6271 46.8027L64.5928 53.3497C67.4546 53.3497 69.1182 55.6188 69.1182 58.3155C69.1182 61.0967 67.456 63.2377 64.5928 63.2377L64.6106 69.8011C66.3126 69.413 67.8911 68.4541 68.8094 66.8334H68.8862V69.2741H75.9277L75.9263 47.3148H68.8862ZM63.1707 53.5581L63.1872 46.5997C63.0362 46.5915 62.8852 46.5874 62.7356 46.5874C56.8554 46.5874 52.7925 51.9809 52.7939 58.2719C52.7939 64.5643 56.9336 70 62.8138 70C62.9387 70 63.0609 70 63.1872 69.9918V63.0443C61.1928 62.46 60.0659 60.605 60.0659 58.3155C60.0659 56.1023 61.1873 54.1764 63.1707 53.5581V53.5581ZM121.554 50.0959H121.477L121.476 39.354L114.436 34L114.437 69.2741H121.477V58.0145C121.477 55.5575 122.291 53.0201 124.803 52.8077L124.788 47.2004C123.54 47.7615 122.489 48.7163 121.554 50.0959V50.0959ZM127.898 46.5874C127.304 46.5874 126.745 46.6392 126.219 46.7454L126.221 52.9506C128.068 53.554 128.324 55.8162 128.324 58.0145V69.274H135.364V55.8326C135.364 50.2675 132.927 46.5874 127.898 46.5874V46.5874ZM149.386 46.6597V53.4028C151.799 53.7556 153.181 55.8571 153.181 58.3155C153.181 60.8515 151.798 62.8564 149.383 63.1887L149.385 69.9837C155.457 69.6718 160.608 65.4796 160.608 58.3155C160.608 51.1161 155.451 46.977 149.386 46.6597V46.6597ZM147.919 53.4029L147.938 46.6052C141.862 46.9103 136.702 51.1066 136.702 58.3155C136.702 65.515 141.885 69.6718 147.922 69.9823L147.917 63.1874C145.509 62.8496 144.129 60.8502 144.129 58.3155C144.129 55.8585 145.51 53.7583 147.919 53.4029V53.4029ZM168.973 59.0415V47.3148H161.933L161.934 60.541C161.934 67.4735 166.162 69.8093 171.758 69.9891V63.7458C169.485 63.4298 168.973 61.5721 168.973 59.0415V59.0415ZM176.013 59.0415C176.013 61.5884 175.545 63.4066 173.23 63.7036L173.219 69.9905C178.82 69.8121 183.055 67.4817 183.055 60.541V47.3148H176.013V59.0415ZM103.177 64.4581L103.176 69.9918C107.545 69.8433 111.737 67.4749 112.821 62.4668H106.052C105.364 63.7594 104.433 64.3437 103.177 64.4581V64.4581ZM103.18 46.6215V51.6854C104.827 51.9428 106.244 53.2353 106.554 55.1053H98.3925C98.759 53.1441 100.079 51.985 101.754 51.7044L101.755 46.5943C97.4756 46.7373 94.0977 48.8579 92.4121 52.4998V47.0138H91.0574C88.3108 47.0138 85.9898 48.2137 84.6364 50.9118H84.5595L84.5581 47.3148H77.5181L77.5195 69.2741H84.5595V60.4116C84.5595 56.6471 85.5258 53.7774 89.4336 53.7774C90.2819 53.7774 91.0354 53.8577 91.7876 54.1805C91.4266 55.4254 91.2345 56.8092 91.2358 58.3155C91.2358 65.515 95.6721 69.5846 101.755 69.9714L101.754 64.4145C99.4618 64.0726 98.2759 62.4083 98.2759 59.5999H113.093V58.7854C113.092 51.65 109.478 47.0437 103.18 46.6215V46.6215ZM213.349 64.4581L213.348 69.9918C217.714 69.8433 221.907 67.4749 222.991 62.4668H216.222C215.534 63.7594 214.605 64.3437 213.349 64.4581V64.4581ZM213.352 46.6215V51.6854C214.997 51.9428 216.414 53.2353 216.726 55.1053H208.561C208.929 53.1441 210.25 51.985 211.924 51.7044V46.5943C205.715 46.8027 201.405 51.1733 201.405 58.3155C201.405 65.515 205.842 69.5846 211.924 69.9714V64.4145C209.633 64.0726 208.446 62.4083 208.446 59.5999H223.262V58.7854C223.261 51.65 219.646 47.0437 213.352 46.6215V46.6215ZM188.995 60.1555C189.629 60.3394 190.264 60.4797 190.844 60.6227L193.252 55.01C192.369 54.7648 191.509 54.329 191.509 53.3919C191.509 52.2805 192.903 51.8951 193.714 51.8951C194.914 51.8951 196.424 52.3228 197.507 52.9643L199.865 47.9998C197.816 46.9729 195.571 46.5874 193.329 46.5874C188.995 46.5874 184.585 48.9845 184.585 54.3766C184.585 58.3155 186.791 59.514 188.995 60.1555V60.1555ZM194.682 55.3191L192.244 61.064C192.948 61.3731 193.405 61.8158 193.405 62.5962C193.405 63.7948 192.09 64.266 191.201 64.266C189.459 64.266 187.061 63.1519 185.63 62.0392L183.077 67.4748C185.474 69.1024 188.261 70 191.086 70C195.688 70 200.447 67.6029 200.447 61.8267C200.447 57.7584 197.969 56.0464 194.682 55.3191V55.3191ZM17.4082 47.3052L27.225 69.274H31.5473L32.5219 66.753L24.93 47.2889L17.4082 47.3052ZM34.2212 47.3052L30.3107 57.1279L33.2837 64.8081L36.2005 57.2409L40.8522 69.2741H45.1745L46.005 67.415L38.269 47.3052H34.2212ZM47.6274 47.3052L43.6496 57.3308L46.8395 65.5463L54.99 47.3052H47.6274Z" fill="white"/>
</g>
</svg>
